<svg xmlns="http://www.w3.org/2000/svg" version="1.1" xmlns:xlink="http://www.w3.org/1999/xlink" xmlns:svgjs="http://svgjs.dev/svgjs" width="1500" height="935" viewBox="0 0 1500 935"><g transform="matrix(1,0,0,1,-0.9090909090909918,0.3785425101214628)"><svg viewBox="0 0 396 247" data-background-color="#ffffff" preserveAspectRatio="xMidYMid meet" height="935" width="1500" xmlns="http://www.w3.org/2000/svg" xmlns:xlink="http://www.w3.org/1999/xlink"><g id="tight-bounds" transform="matrix(1,0,0,1,0.2400000000000091,-0.09999999999999432)"><svg viewBox="0 0 395.52 247.2" height="247.2" width="395.52"><g><svg></svg></g><g><svg viewBox="0 0 395.52 247.2" height="247.2" width="395.52"><mask id="7749ed66-07f2-4f83-a3cf-c9a2e694f49e"><rect width="640" height="400" fill="white"></rect><g transform="matrix(1,0,0,1,39.55199999999999,54.44328843656548)"><svg viewBox="0 0 316.416 138.31342312686903" height="138.31342312686903" width="316.416"><g><svg viewBox="0 0 316.416 138.31342312686903" height="138.31342312686903" width="316.416"><g><svg viewBox="0 0 316.416 138.31342312686903" height="138.31342312686903" width="316.416"><g><svg viewBox="0 0 316.416 138.31342312686903" height="138.31342312686903" width="316.416"><g id="SvgjsG2104"><svg viewBox="0 0 316.416 138.31342312686903" height="138.31342312686903" width="316.416" id="SvgjsSvg2103"><g><svg viewBox="0 0 316.416 80.49901127493494" height="80.49901127493494" width="316.416"><g transform="matrix(1,0,0,1,0,0)"><svg width="316.416" viewBox="-1.7999999999999998 -40.5 173.94 45" height="80.49901127493494" data-palette-color="#085f63"><path d="M13.65 0.5L13.65 0.5Q10 0.5 6.93-1.05 3.85-2.6 2.2-5.45L2.2-5.45 5.6-7.9Q6.7-5.6 8.83-4.3 10.95-3 13.95-3L13.95-3Q16.6-3 18.1-4.03 19.6-5.05 19.6-6.7L19.6-6.7Q19.6-7.75 18.93-8.63 18.25-9.5 16.35-9.9L16.35-9.9 10.35-11.15Q6.7-11.9 5.13-13.65 3.55-15.4 3.55-18L3.55-18Q3.55-20.05 4.73-21.75 5.9-23.45 8.08-24.48 10.25-25.5 13.2-25.5L13.2-25.5Q16.9-25.5 19.45-24.05 22-22.6 23.25-19.95L23.25-19.95 19.9-17.75Q19.05-19.95 17.15-20.98 15.25-22 13.2-22L13.2-22Q11.4-22 10.13-21.5 8.85-21 8.18-20.13 7.5-19.25 7.5-18.15L7.5-18.15Q7.5-17.05 8.25-16.13 9-15.2 11.05-14.8L11.05-14.8 17.3-13.5Q20.8-12.8 22.2-11.2 23.6-9.6 23.6-7.3L23.6-7.3Q23.6-4.95 22.35-3.18 21.1-1.4 18.85-0.45 16.6 0.5 13.65 0.5ZM35 0L31 0 31-36.5 35-36.5 35-21.25Q36.3-23.5 38.45-24.5 40.6-25.5 43.15-25.5L43.15-25.5Q45.85-25.5 48.05-24.48 50.25-23.45 51.57-21.35 52.9-19.25 52.9-16L52.9-16 52.9 0 48.9 0 48.9-14.6Q48.9-18.75 47.12-20.38 45.35-22 42.75-22L42.75-22Q40.95-22 39.15-21.15 37.35-20.3 36.17-18.38 35-16.45 35-13.25L35-13.25 35 0ZM63.95-29.8L63.95-29.8Q62.59-29.8 61.77-30.63 60.95-31.45 60.95-32.8L60.95-32.8Q60.95-34.15 61.77-34.98 62.59-35.8 63.95-35.8L63.95-35.8Q65.3-35.8 66.12-34.98 66.95-34.15 66.95-32.8L66.95-32.8Q66.95-31.45 66.12-30.63 65.3-29.8 63.95-29.8ZM61.95-25L65.95-25 65.95 0 61.95 0 61.95-25ZM83.64-4.05L91.79-25 95.99-25 85.59 0 81.59 0 71.19-25 75.74-25 83.64-4.05ZM115.84-9.25L115.84-16.15Q115.84-18.95 114.34-20.48 112.84-22 110.09-22L110.09-22Q107.49-22 105.69-20.88 103.89-19.75 103.04-17.25L103.04-17.25 99.79-19.25Q100.79-22.05 103.49-23.78 106.19-25.5 110.19-25.5L110.19-25.5Q112.89-25.5 115.09-24.58 117.29-23.65 118.56-21.78 119.84-19.9 119.84-16.95L119.84-16.95 119.84-4.85Q119.84-3.05 121.74-3.05L121.74-3.05Q122.69-3.05 123.59-3.3L123.59-3.3 123.39-0.15Q122.39 0.35 120.79 0.35L120.79 0.35Q119.34 0.35 118.19-0.2 117.04-0.75 116.39-1.88 115.74-3 115.74-4.7L115.74-4.7 115.74-5.2 116.74-5.05Q116.14-3.1 114.69-1.88 113.24-0.65 111.44-0.08 109.64 0.5 107.89 0.5L107.89 0.5Q105.69 0.5 103.79-0.25 101.89-1 100.77-2.53 99.64-4.05 99.64-6.3L99.64-6.3Q99.64-9.1 101.52-10.93 103.39-12.75 106.74-13.4L106.74-13.4 116.64-15.35 116.64-12.05 108.59-10.4Q106.14-9.9 104.94-9 103.74-8.1 103.74-6.5L103.74-6.5Q103.74-4.95 104.97-3.98 106.19-3 108.44-3L108.44-3Q109.89-3 111.22-3.38 112.54-3.75 113.59-4.53 114.64-5.3 115.24-6.48 115.84-7.65 115.84-9.25L115.84-9.25ZM133.54 0L129.54 0 129.54-25 133.04-25 133.29-21.1Q134.64-23.4 136.81-24.45 138.99-25.5 141.29-25.5L141.29-25.5Q143.94-25.5 146.29-24.3 148.64-23.1 149.89-20.6L149.89-20.6Q150.69-22.3 152.14-23.38 153.59-24.45 155.31-24.98 157.04-25.5 158.59-25.5L158.59-25.5Q160.99-25.5 163.16-24.5 165.34-23.5 166.74-21.4 168.14-19.3 168.14-16L168.14-16 168.14 0 164.14 0 164.14-15.6Q164.14-19 162.44-20.5 160.74-22 158.24-22L158.24-22Q156.29-22 154.59-21.05 152.89-20.1 151.86-18.25 150.84-16.4 150.84-13.7L150.84-13.7 150.84 0 146.84 0 146.84-15.6Q146.84-19 145.14-20.5 143.44-22 140.94-22L140.94-22Q139.29-22 137.56-21.13 135.84-20.25 134.69-18.35 133.54-16.45 133.54-13.35L133.54-13.35 133.54 0Z" opacity="1" transform="matrix(1,0,0,1,0,0)" fill="black" class="wordmark-text-0" id="SvgjsPath2102" stroke-width="7" stroke="black" stroke-linejoin="round"></path></svg></g></svg></g><g transform="matrix(1,0,0,1,3.5,96.47955058567214)"><svg viewBox="0 0 309.416 41.833872541196875" height="41.833872541196875" width="309.416"><g transform="matrix(1,0,0,1,0,0)"><svg width="309.416" viewBox="-3.51 -38.79 376.78 51.48" height="41.833872541196875" data-palette-color="#49beb7"><path d="M14.7-17.31L14.7-17.31Q14.45-17.55 14.11-17.55L14.11-17.55Q13.57-17.55 13.38-16.78 13.18-16.02 13.18-13.67L13.18-13.67 13.18-11.18Q13.18-10.52 13.35-10.25 13.53-9.99 13.92-9.99 14.31-9.99 14.48-10.16L14.48-10.16 14.48-13.43Q14.48-15.82 14.7-17.31ZM12.94-31.74L12.94-31.74Q14.23-33.25 15.8-34.02 17.36-34.79 19.78-34.79L19.78-34.79Q22.71-34.79 24.54-33.15L24.54-33.15Q26.42-31.4 26.42-28.42L26.42-28.42 26.42-12.3Q26.42-8.67 28.17-7.57L28.17-7.57Q28.2-7.45 28.2-7.1L28.2-7.1 28.2-6.67Q28.2-3.2 26.1-1.27L26.1-1.27Q24.24 0.44 21.51 0.44L21.51 0.44Q19.6 0.44 18.21-0.37L18.21-0.37Q16.58-1.29 15.92-2.91L15.92-2.91Q15.09-2.91 15.09-2.1L15.09-2.1Q15.09-1.73 15.37-1.26 15.65-0.78 16.14-0.42L16.14-0.42Q14.7 0.44 12.4 0.44L12.4 0.44Q9.3 0.44 6.6-0.99 3.91-2.42 2.32-5.3L2.32-5.3Q0.49-8.59 0.49-13.28L0.49-13.28Q0.49-19.53 3.99-23.1 7.5-26.66 12.94-26.66L12.94-26.66Q16.16-26.66 18.55-25.44L18.55-25.44Q18.82-25.71 18.82-26L18.82-26Q18.82-26.73 17.09-27.25 15.36-27.76 13.6-27.76L13.6-27.76Q13.6-30.25 12.94-31.74ZM60.31 0.76L60.31 0.76Q53.55 0.76 49.64-3L49.64-3Q45.64-6.79 45.64-13.37 45.64-19.95 49.77-23.8L49.77-23.8Q53.57-27.39 59.41-27.39 65.24-27.39 68.77-24.18 72.3-20.97 72.3-16.28L72.3-16.28Q72.3-12.11 69.39-9.99L69.39-9.99Q66.71-7.98 62.07-7.98L62.07-7.98Q58.6-7.98 56.21-9.42L56.21-9.42Q56.02-9.28 56.02-8.89L56.02-8.89Q56.02-8.15 57.94-7.54L57.94-7.54Q59.87-6.88 62.33-6.88 64.78-6.88 66.79-7.51 68.81-8.13 70.03-8.98L70.03-8.98Q70.61-8.47 70.97-7.09 71.32-5.71 71.32-4.58 71.32-3.44 71.1-2.56L71.1-2.56Q69.2-0.95 67.2-0.27L67.2-0.27Q64.36 0.76 60.31 0.76ZM59.99-15.77L59.99-15.77Q61.22-15.77 61.22-16.7L61.22-16.7Q61.22-17.58 59.92-17.58 58.63-17.58 58.43-16.19L58.43-16.19Q59.12-15.77 59.99-15.77ZM102.7-11.94L102.7-11.94 102.7-11.35Q102.7-10.94 102.73-10.77L102.73-10.77Q103.02-10.64 103.29-10.64L103.29-10.64Q104-10.64 104-11.6L104-11.6Q104-14.09 104.58-20.97L104.58-20.97Q104.9-24.71 104.97-25.37L104.97-25.37Q107.27-26.9 110.48-26.9 113.69-26.9 115.45-25.2L115.45-25.2Q117.01-23.63 117.01-21.14L117.01-21.14Q117.01-19.46 116.55-17.65L116.55-17.65Q114.28-8.89 112.03-3.86L112.03-3.86Q110.83-1.25 108.39-0.29L108.39-0.29Q106.59 0.44 103.24 0.44L103.24 0.44Q101.46 0.44 99.71 0.15 97.97-0.15 97.04-0.54L97.04-0.54Q93.5-7.76 91.21-16.53L91.21-16.53Q90.45-17.29 89.91-18.65 89.37-20.02 89.37-21.48L89.37-21.48Q89.37-24.51 90.84-26.68L90.84-26.68Q90.84-26.68 96.92-26.68L96.92-26.68Q100.12-26.68 101.68-24.88L101.68-24.88Q102.85-23.51 103.19-20.9L103.19-20.9Q102.7-16.36 102.7-11.94ZM149 0.76L149 0.76Q142.24 0.76 138.33-3L138.33-3Q134.33-6.79 134.33-13.37 134.33-19.95 138.46-23.8L138.46-23.8Q142.26-27.39 148.1-27.39 153.93-27.39 157.46-24.18 160.99-20.97 160.99-16.28L160.99-16.28Q160.99-12.11 158.09-9.99L158.09-9.99Q155.4-7.98 150.76-7.98L150.76-7.98Q147.29-7.98 144.9-9.42L144.9-9.42Q144.71-9.28 144.71-8.89L144.71-8.89Q144.71-8.15 146.63-7.54L146.63-7.54Q148.56-6.88 151.02-6.88 153.47-6.88 155.48-7.51 157.5-8.13 158.72-8.98L158.72-8.98Q159.31-8.47 159.66-7.09 160.01-5.71 160.01-4.58 160.01-3.44 159.79-2.56L159.79-2.56Q157.89-0.95 155.89-0.27L155.89-0.27Q153.06 0.76 149 0.76ZM148.69-15.77L148.69-15.77Q149.91-15.77 149.91-16.7L149.91-16.7Q149.91-17.58 148.61-17.58 147.32-17.58 147.12-16.19L147.12-16.19Q147.81-15.77 148.69-15.77ZM191.96-29.47L191.96-29.47 191.96-12.3Q191.96-8.67 193.71-7.57L193.71-7.57Q193.74-7.45 193.74-7.1L193.74-7.1 193.74-6.67Q193.74-3.17 191.97-1.37 190.2 0.44 186.95 0.44 183.7 0.44 181.8-1.37L181.8-1.37Q179.53-3.52 179.53-7.86L179.53-7.86 179.53-33.23Q182.09-34.79 185.4-34.79 188.71-34.79 190.33-33.39 191.96-31.98 191.96-29.47ZM224.31-13.6L224.31-13.6 224.31-9.33Q224.49-9.16 224.88-9.16 225.27-9.16 225.44-9.42 225.61-9.69 225.61-10.35L225.61-10.35 225.61-13.84Q225.61-16.19 225.41-16.96 225.22-17.72 224.68-17.72L224.68-17.72Q224.34-17.72 224.1-17.48L224.1-17.48Q224.31-15.06 224.31-13.6ZM215.18-2.78L215.18-2.78Q211.18-6.64 211.18-13.24 211.18-19.85 214.95-23.67 218.72-27.49 224.85-27.49 230.98-27.49 234.76-23.51L234.76-23.51Q238.52-19.53 238.52-13.15 238.52-6.76 234.9-3 231.27 0.76 225.05 0.76 218.82 0.76 215.18-2.78ZM270.1-13.18L270.1-13.18 270.1-9.91Q270.27-9.74 270.66-9.74 271.05-9.74 271.22-10.01 271.39-10.28 271.39-10.94L271.39-10.94 271.39-13.43Q271.39-15.77 271.2-16.54 271-17.31 270.47-17.31L270.47-17.31Q270.13-17.31 269.88-17.07L269.88-17.07Q270.1-14.65 270.1-13.18ZM262.31-23.71L262.31-23.71Q262.31-22.97 263.17-22.97L263.17-22.97Q264.63-25.27 266.61-26.38 268.59-27.49 271.37-27.49 274.15-27.49 276.45-26.61L276.45-26.61Q279.6-25.37 281.43-22.61L281.43-22.61Q283.72-19.12 283.72-13.45L283.72-13.45Q283.72-7.08 280.32-3.55 276.91-0.02 270.88-0.02L270.88-0.02Q267.51-0.02 265.63-0.85L265.63-0.85Q265.46-0.76 265.46-0.44L265.46-0.44Q265.46 0.29 266.6 0.61 267.73 0.93 270.52 1.07L270.52 1.07 270.52 7.57Q268 8.69 265 8.69L265 8.69Q261.46 8.69 259.65 7.4L259.65 7.4Q257.6 6.01 257.6 3.13L257.6 3.13 257.6-16.53Q256.16-18.55 256.16-21.56L256.16-21.56Q256.16-22.78 256.55-24.22 256.94-25.66 257.6-26.68L257.6-26.68 261.07-26.68Q263.19-26.68 264.31-26.1L264.31-26.1Q262.31-24.61 262.31-23.71ZM316.52 0.76L316.52 0.76Q309.76 0.76 305.85-3L305.85-3Q301.85-6.79 301.85-13.37 301.85-19.95 305.97-23.8L305.97-23.8Q309.78-27.39 315.62-27.39 321.45-27.39 324.98-24.18 328.51-20.97 328.51-16.28L328.51-16.28Q328.51-12.11 325.6-9.99L325.6-9.99Q322.92-7.98 318.28-7.98L318.28-7.98Q314.81-7.98 312.42-9.42L312.42-9.42Q312.22-9.28 312.22-8.89L312.22-8.89Q312.22-8.15 314.15-7.54L314.15-7.54Q316.08-6.88 318.54-6.88 320.99-6.88 323-7.51 325.02-8.13 326.24-8.98L326.24-8.98Q326.82-8.47 327.18-7.09 327.53-5.71 327.53-4.58 327.53-3.44 327.31-2.56L327.31-2.56Q325.41-0.95 323.41-0.27L323.41-0.27Q320.57 0.76 316.52 0.76ZM316.2-15.77L316.2-15.77Q317.42-15.77 317.42-16.7L317.42-16.7Q317.42-17.58 316.13-17.58 314.84-17.58 314.64-16.19L314.64-16.19Q315.32-15.77 316.2-15.77ZM354.08 0.32L354.08 0.32Q351.17 0.32 349.44-0.73L349.44-0.73Q347.51-1.83 347.51-3.98L347.51-3.98 347.51-16.55Q346.07-18.58 346.07-21.55 346.07-24.51 347.51-26.68L347.51-26.68 351.25-26.68Q354.13-26.68 355.37-24.83L355.37-24.83Q354.76-24.15 354.3-23.1 353.84-22.05 353.84-21.59 353.84-21.14 354.07-20.92 354.3-20.7 354.74-20.7L354.74-20.7Q355.59-24.1 357.99-25.68L357.99-25.68Q359.96-27.03 362.87-27.03L362.87-27.03Q366.48-27.03 368.53-25.49L368.53-25.49Q369.27-23.54 369.27-20.72 369.27-17.9 368.14-15.6L368.14-15.6Q367.31-15.16 365.85-14.86 364.38-14.55 362.89-14.55 361.4-14.55 360.22-14.76 359.04-14.97 358.5-15.14L358.5-15.14Q358.3-14.94 358.3-14.58 358.3-14.21 358.78-14.03 359.26-13.84 360.38-13.62L360.38-13.62 360.38-1.37Q357.72 0.32 354.08 0.32Z" opacity="1" transform="matrix(1,0,0,1,0,0)" fill="black" class="slogan-text-1" id="SvgjsPath2101" stroke-width="7" stroke="black" stroke-linejoin="round"></path></svg></g></svg></g></svg></g></svg></g><g></g></svg></g></svg></g></svg></g></mask><g transform="matrix(1,0,0,1,39.55199999999999,54.44328843656548)"><svg viewBox="0 0 316.416 138.31342312686903" height="138.31342312686903" width="316.416"><g><svg viewBox="0 0 316.416 138.31342312686903" height="138.31342312686903" width="316.416"><g><svg viewBox="0 0 316.416 138.31342312686903" height="138.31342312686903" width="316.416"><g><svg viewBox="0 0 316.416 138.31342312686903" height="138.31342312686903" width="316.416"><g id="textblocktransform"><svg viewBox="0 0 316.416 138.31342312686903" height="138.31342312686903" width="316.416" id="textblock"><g><svg viewBox="0 0 316.416 80.49901127493494" height="80.49901127493494" width="316.416"><g transform="matrix(1,0,0,1,0,0)"><svg width="316.416" viewBox="-1.7999999999999998 -40.5 173.94 45" height="80.49901127493494" data-palette-color="#085f63"><path d="M13.65 0.5L13.65 0.5Q10 0.5 6.93-1.05 3.85-2.6 2.2-5.45L2.2-5.45 5.6-7.9Q6.7-5.6 8.83-4.3 10.95-3 13.95-3L13.95-3Q16.6-3 18.1-4.03 19.6-5.05 19.6-6.7L19.6-6.7Q19.6-7.75 18.93-8.63 18.25-9.5 16.35-9.9L16.35-9.9 10.35-11.15Q6.7-11.9 5.13-13.65 3.55-15.4 3.55-18L3.55-18Q3.55-20.05 4.73-21.75 5.9-23.45 8.08-24.48 10.25-25.5 13.2-25.5L13.2-25.5Q16.9-25.5 19.45-24.05 22-22.6 23.25-19.95L23.25-19.95 19.9-17.75Q19.05-19.95 17.15-20.98 15.25-22 13.2-22L13.2-22Q11.4-22 10.13-21.5 8.85-21 8.18-20.13 7.5-19.25 7.5-18.15L7.5-18.15Q7.5-17.05 8.25-16.13 9-15.2 11.05-14.8L11.05-14.8 17.3-13.5Q20.8-12.8 22.2-11.2 23.6-9.6 23.6-7.3L23.6-7.3Q23.6-4.95 22.35-3.18 21.1-1.4 18.85-0.45 16.6 0.5 13.65 0.5ZM35 0L31 0 31-36.5 35-36.5 35-21.25Q36.3-23.5 38.45-24.5 40.6-25.5 43.15-25.5L43.15-25.5Q45.85-25.5 48.05-24.48 50.25-23.45 51.57-21.35 52.9-19.25 52.9-16L52.9-16 52.9 0 48.9 0 48.9-14.6Q48.9-18.75 47.12-20.38 45.35-22 42.75-22L42.75-22Q40.95-22 39.15-21.15 37.35-20.3 36.17-18.38 35-16.45 35-13.25L35-13.25 35 0ZM63.95-29.8L63.95-29.8Q62.59-29.8 61.77-30.63 60.95-31.45 60.95-32.8L60.95-32.8Q60.95-34.15 61.77-34.98 62.59-35.8 63.95-35.8L63.95-35.8Q65.3-35.8 66.12-34.98 66.95-34.15 66.95-32.8L66.95-32.8Q66.95-31.45 66.12-30.63 65.3-29.8 63.95-29.8ZM61.95-25L65.95-25 65.95 0 61.95 0 61.95-25ZM83.64-4.05L91.79-25 95.99-25 85.59 0 81.59 0 71.19-25 75.74-25 83.64-4.05ZM115.84-9.25L115.84-16.15Q115.84-18.95 114.34-20.48 112.84-22 110.09-22L110.09-22Q107.49-22 105.69-20.88 103.89-19.75 103.04-17.25L103.04-17.25 99.79-19.25Q100.79-22.05 103.49-23.78 106.19-25.5 110.19-25.5L110.19-25.5Q112.89-25.5 115.09-24.58 117.29-23.65 118.56-21.78 119.84-19.9 119.84-16.95L119.84-16.95 119.84-4.85Q119.84-3.05 121.74-3.05L121.74-3.05Q122.69-3.05 123.59-3.3L123.59-3.3 123.39-0.15Q122.39 0.35 120.79 0.35L120.79 0.35Q119.34 0.35 118.19-0.2 117.04-0.75 116.39-1.88 115.74-3 115.74-4.7L115.74-4.7 115.74-5.2 116.74-5.05Q116.14-3.1 114.69-1.88 113.24-0.65 111.44-0.08 109.64 0.5 107.89 0.5L107.89 0.5Q105.69 0.5 103.79-0.25 101.89-1 100.77-2.53 99.64-4.05 99.64-6.3L99.64-6.3Q99.64-9.1 101.52-10.93 103.39-12.75 106.74-13.4L106.74-13.4 116.64-15.35 116.64-12.05 108.59-10.4Q106.14-9.9 104.94-9 103.74-8.1 103.74-6.5L103.74-6.5Q103.74-4.95 104.97-3.98 106.19-3 108.44-3L108.44-3Q109.89-3 111.22-3.38 112.54-3.75 113.59-4.53 114.64-5.3 115.24-6.48 115.84-7.65 115.84-9.25L115.84-9.25ZM133.54 0L129.54 0 129.54-25 133.04-25 133.29-21.1Q134.64-23.4 136.81-24.45 138.99-25.5 141.29-25.5L141.29-25.5Q143.94-25.5 146.29-24.3 148.64-23.1 149.89-20.6L149.89-20.6Q150.69-22.3 152.14-23.38 153.59-24.45 155.31-24.98 157.04-25.5 158.59-25.5L158.59-25.5Q160.99-25.5 163.16-24.5 165.34-23.5 166.74-21.4 168.14-19.3 168.14-16L168.14-16 168.14 0 164.14 0 164.14-15.6Q164.14-19 162.44-20.5 160.74-22 158.24-22L158.24-22Q156.29-22 154.59-21.05 152.89-20.1 151.86-18.25 150.84-16.4 150.84-13.7L150.84-13.7 150.84 0 146.84 0 146.84-15.6Q146.84-19 145.14-20.5 143.44-22 140.94-22L140.94-22Q139.29-22 137.56-21.13 135.84-20.25 134.69-18.35 133.54-16.45 133.54-13.35L133.54-13.35 133.54 0Z" opacity="1" transform="matrix(1,0,0,1,0,0)" fill="#085f63" class="wordmark-text-0" data-fill-palette-color="primary" id="text-0"></path></svg></g></svg></g><g transform="matrix(1,0,0,1,3.5,96.47955058567214)"><svg viewBox="0 0 309.416 41.833872541196875" height="41.833872541196875" width="309.416"><g transform="matrix(1,0,0,1,0,0)"><svg width="309.416" viewBox="-3.51 -38.79 376.78 51.48" height="41.833872541196875" data-palette-color="#49beb7"><path d="M14.7-17.31L14.7-17.31Q14.45-17.55 14.11-17.55L14.11-17.55Q13.57-17.55 13.38-16.78 13.18-16.02 13.18-13.67L13.18-13.67 13.18-11.18Q13.18-10.52 13.35-10.25 13.53-9.99 13.92-9.99 14.31-9.99 14.48-10.16L14.48-10.16 14.48-13.43Q14.48-15.82 14.7-17.31ZM12.94-31.74L12.94-31.74Q14.23-33.25 15.8-34.02 17.36-34.79 19.78-34.79L19.78-34.79Q22.71-34.79 24.54-33.15L24.54-33.15Q26.42-31.4 26.42-28.42L26.42-28.42 26.42-12.3Q26.42-8.67 28.17-7.57L28.17-7.57Q28.2-7.45 28.2-7.1L28.2-7.1 28.2-6.67Q28.2-3.2 26.1-1.27L26.1-1.27Q24.24 0.44 21.51 0.44L21.51 0.44Q19.6 0.44 18.21-0.37L18.21-0.37Q16.58-1.29 15.92-2.91L15.92-2.91Q15.09-2.91 15.09-2.1L15.09-2.1Q15.09-1.73 15.37-1.26 15.65-0.78 16.14-0.42L16.14-0.42Q14.7 0.44 12.4 0.44L12.4 0.44Q9.3 0.44 6.6-0.99 3.91-2.42 2.32-5.3L2.32-5.3Q0.49-8.59 0.49-13.28L0.49-13.28Q0.49-19.53 3.99-23.1 7.5-26.66 12.94-26.66L12.94-26.66Q16.16-26.66 18.55-25.44L18.55-25.44Q18.82-25.71 18.82-26L18.82-26Q18.82-26.73 17.09-27.25 15.36-27.76 13.6-27.76L13.6-27.76Q13.6-30.25 12.94-31.74ZM60.31 0.76L60.31 0.76Q53.55 0.76 49.64-3L49.64-3Q45.64-6.79 45.64-13.37 45.64-19.95 49.77-23.8L49.77-23.8Q53.57-27.39 59.41-27.39 65.24-27.39 68.77-24.18 72.3-20.97 72.3-16.28L72.3-16.28Q72.3-12.11 69.39-9.99L69.39-9.99Q66.71-7.98 62.07-7.98L62.07-7.98Q58.6-7.98 56.21-9.42L56.21-9.42Q56.02-9.28 56.02-8.89L56.02-8.89Q56.02-8.15 57.94-7.54L57.94-7.54Q59.87-6.88 62.33-6.88 64.78-6.88 66.79-7.51 68.81-8.13 70.03-8.98L70.03-8.98Q70.61-8.47 70.97-7.09 71.32-5.71 71.32-4.58 71.32-3.44 71.1-2.56L71.1-2.56Q69.2-0.95 67.2-0.27L67.2-0.27Q64.36 0.76 60.31 0.76ZM59.99-15.77L59.99-15.77Q61.22-15.77 61.22-16.7L61.22-16.7Q61.22-17.58 59.92-17.58 58.63-17.58 58.43-16.19L58.43-16.19Q59.12-15.77 59.99-15.77ZM102.7-11.94L102.7-11.94 102.7-11.35Q102.7-10.94 102.73-10.77L102.73-10.77Q103.02-10.64 103.29-10.64L103.29-10.64Q104-10.64 104-11.6L104-11.6Q104-14.09 104.58-20.97L104.58-20.97Q104.9-24.71 104.97-25.37L104.97-25.37Q107.27-26.9 110.48-26.9 113.69-26.9 115.45-25.2L115.45-25.2Q117.01-23.63 117.01-21.14L117.01-21.14Q117.01-19.46 116.55-17.65L116.55-17.65Q114.28-8.89 112.03-3.86L112.03-3.86Q110.83-1.25 108.39-0.29L108.39-0.29Q106.59 0.44 103.24 0.44L103.24 0.44Q101.46 0.44 99.71 0.15 97.97-0.15 97.04-0.54L97.04-0.54Q93.5-7.76 91.21-16.53L91.21-16.53Q90.45-17.29 89.91-18.65 89.37-20.02 89.37-21.48L89.37-21.48Q89.37-24.51 90.84-26.68L90.84-26.68Q90.84-26.68 96.92-26.68L96.92-26.68Q100.12-26.68 101.68-24.88L101.68-24.88Q102.85-23.51 103.19-20.9L103.19-20.9Q102.7-16.36 102.7-11.94ZM149 0.76L149 0.76Q142.24 0.76 138.33-3L138.33-3Q134.33-6.79 134.33-13.37 134.33-19.95 138.46-23.8L138.46-23.8Q142.26-27.39 148.1-27.39 153.93-27.39 157.46-24.18 160.99-20.97 160.99-16.28L160.99-16.28Q160.99-12.11 158.09-9.99L158.09-9.99Q155.4-7.98 150.76-7.98L150.76-7.98Q147.29-7.98 144.9-9.42L144.9-9.42Q144.71-9.28 144.71-8.89L144.71-8.89Q144.71-8.15 146.63-7.54L146.63-7.54Q148.56-6.88 151.02-6.88 153.47-6.88 155.48-7.51 157.5-8.13 158.72-8.98L158.72-8.98Q159.31-8.47 159.66-7.09 160.01-5.71 160.01-4.58 160.01-3.44 159.79-2.56L159.79-2.56Q157.89-0.95 155.89-0.27L155.89-0.27Q153.06 0.76 149 0.76ZM148.69-15.77L148.69-15.77Q149.91-15.77 149.91-16.7L149.91-16.7Q149.91-17.58 148.61-17.58 147.32-17.58 147.12-16.19L147.12-16.19Q147.81-15.77 148.69-15.77ZM191.96-29.47L191.96-29.47 191.96-12.3Q191.96-8.67 193.71-7.57L193.71-7.57Q193.74-7.45 193.74-7.1L193.74-7.1 193.74-6.67Q193.74-3.17 191.97-1.37 190.2 0.44 186.95 0.44 183.7 0.44 181.8-1.37L181.8-1.37Q179.53-3.52 179.53-7.86L179.53-7.86 179.53-33.23Q182.09-34.79 185.4-34.79 188.71-34.79 190.33-33.39 191.96-31.98 191.96-29.47ZM224.31-13.6L224.31-13.6 224.31-9.33Q224.49-9.16 224.88-9.16 225.27-9.16 225.44-9.42 225.61-9.69 225.61-10.35L225.61-10.35 225.61-13.84Q225.61-16.19 225.41-16.96 225.22-17.72 224.68-17.72L224.68-17.72Q224.34-17.72 224.1-17.48L224.1-17.48Q224.31-15.06 224.31-13.6ZM215.18-2.78L215.18-2.78Q211.18-6.64 211.18-13.24 211.18-19.85 214.95-23.67 218.72-27.49 224.85-27.49 230.98-27.49 234.76-23.51L234.76-23.51Q238.52-19.53 238.52-13.15 238.52-6.76 234.9-3 231.27 0.76 225.05 0.76 218.82 0.76 215.18-2.78ZM270.1-13.18L270.1-13.18 270.1-9.91Q270.27-9.74 270.66-9.74 271.05-9.74 271.22-10.01 271.39-10.28 271.39-10.94L271.39-10.94 271.39-13.43Q271.39-15.77 271.2-16.54 271-17.31 270.47-17.31L270.47-17.31Q270.13-17.31 269.88-17.07L269.88-17.07Q270.1-14.65 270.1-13.18ZM262.31-23.71L262.31-23.71Q262.31-22.97 263.17-22.97L263.17-22.97Q264.63-25.27 266.61-26.38 268.59-27.49 271.37-27.49 274.15-27.49 276.45-26.61L276.45-26.61Q279.6-25.37 281.43-22.61L281.43-22.61Q283.72-19.12 283.72-13.45L283.72-13.45Q283.72-7.08 280.32-3.55 276.91-0.02 270.88-0.02L270.88-0.02Q267.51-0.02 265.63-0.85L265.63-0.85Q265.46-0.76 265.46-0.44L265.46-0.44Q265.46 0.29 266.6 0.61 267.73 0.93 270.52 1.07L270.52 1.07 270.52 7.57Q268 8.69 265 8.69L265 8.69Q261.46 8.69 259.65 7.4L259.65 7.4Q257.6 6.01 257.6 3.13L257.6 3.13 257.6-16.53Q256.16-18.55 256.16-21.56L256.16-21.56Q256.16-22.78 256.55-24.22 256.94-25.66 257.6-26.68L257.6-26.68 261.07-26.68Q263.19-26.68 264.31-26.1L264.31-26.1Q262.31-24.61 262.31-23.71ZM316.52 0.76L316.52 0.76Q309.76 0.76 305.85-3L305.85-3Q301.85-6.79 301.85-13.37 301.85-19.95 305.97-23.8L305.97-23.8Q309.78-27.39 315.62-27.39 321.45-27.39 324.98-24.18 328.51-20.97 328.51-16.28L328.51-16.28Q328.51-12.11 325.6-9.99L325.6-9.99Q322.92-7.98 318.28-7.98L318.28-7.98Q314.81-7.98 312.42-9.42L312.42-9.42Q312.22-9.28 312.22-8.89L312.22-8.89Q312.22-8.15 314.15-7.54L314.15-7.54Q316.08-6.88 318.54-6.88 320.99-6.88 323-7.51 325.02-8.13 326.24-8.98L326.24-8.98Q326.82-8.47 327.18-7.09 327.53-5.71 327.53-4.58 327.53-3.44 327.31-2.56L327.31-2.56Q325.41-0.95 323.41-0.27L323.41-0.27Q320.57 0.76 316.52 0.76ZM316.2-15.77L316.2-15.77Q317.42-15.77 317.42-16.7L317.42-16.7Q317.42-17.58 316.13-17.58 314.84-17.58 314.64-16.19L314.64-16.19Q315.32-15.77 316.2-15.77ZM354.08 0.32L354.08 0.32Q351.17 0.32 349.44-0.73L349.44-0.73Q347.51-1.83 347.51-3.98L347.51-3.98 347.51-16.55Q346.07-18.58 346.07-21.55 346.07-24.51 347.51-26.68L347.51-26.68 351.25-26.68Q354.13-26.68 355.37-24.83L355.37-24.83Q354.76-24.15 354.3-23.1 353.84-22.05 353.84-21.59 353.84-21.14 354.07-20.92 354.3-20.7 354.74-20.7L354.74-20.7Q355.59-24.1 357.99-25.68L357.99-25.68Q359.96-27.03 362.87-27.03L362.87-27.03Q366.48-27.03 368.53-25.49L368.53-25.49Q369.27-23.54 369.27-20.72 369.27-17.9 368.14-15.6L368.14-15.6Q367.31-15.16 365.85-14.86 364.38-14.55 362.89-14.55 361.4-14.55 360.22-14.76 359.04-14.97 358.5-15.14L358.5-15.14Q358.3-14.94 358.3-14.58 358.3-14.21 358.78-14.03 359.26-13.84 360.38-13.62L360.38-13.62 360.38-1.37Q357.72 0.32 354.08 0.32Z" opacity="1" transform="matrix(1,0,0,1,0,0)" fill="#49beb7" class="slogan-text-1" data-fill-palette-color="secondary" id="text-1"></path></svg></g></svg></g></svg></g></svg></g><g></g></svg></g></svg></g></svg></g><g mask="url(#7749ed66-07f2-4f83-a3cf-c9a2e694f49e)"><g transform="matrix(2.625267665952891, 0, 0, 2.625267665952891, 104.43173447537472, 0.9999999999999858)"><svg xmlns="http://www.w3.org/2000/svg" xmlns:xlink="http://www.w3.org/1999/xlink" version="1.1" x="0" y="0" viewBox="14.5 3.3 71.1 93.39999999999999" enable-background="new 0 0 100 100" xml:space="preserve" height="93.39999999999999" width="71.1" class="icon-none" data-fill-palette-color="accent" id="none"><path d="M52.1 84.4v8.1h12.2c1.2 0 2.1 1 2.1 2.1s-1 2.1-2.1 2.1H35.7c-1.2 0-2.1-1-2.1-2.1s1-2.1 2.1-2.1h12.2v-8.1H18.7c-2.3 0-4.2-1.9-4.2-4.2V39.9c0-2.3 1.9-4.2 4.2-4.2H33c1.2 0 2.1 1 2.1 2.1s-1 2.1-2.1 2.1H18.7l0 17.6v22.7l31.2 0c0 0 0 0 0.1 0 0 0 0 0 0.1 0l31.2 0 0-40.3-14.2 0c-1.2 0-2.1-1-2.1-2.1s1-2.1 2.1-2.1h14.3c2.3 0 4.2 1.9 4.2 4.2v40.3c0 2.3-1.9 4.2-4.2 4.2H52.1zM50.2 3.3c3.5 0.1 6.3 3 6.2 6.5-0.1 2.7-1.8 5-4.2 5.8v52.9c0 1.2-1 2.1-2.1 2.1-1.2 0-2.1-1-2.1-2.1V15.6c-0.9-0.3-1.8-0.9-2.5-1.6-1.2-1.2-1.8-2.8-1.8-4.5 0.1-3.4 2.9-6.2 6.4-6.2L50.2 3.3zM50.1 7.5L50.1 7.5c-1.2 0-2.1 0.9-2.2 2.1 0 0.6 0.2 1.1 0.6 1.5 0.4 0.4 0.9 0.6 1.5 0.7l0.1 0c1.1 0 2.1-0.9 2.1-2.1C52.1 8.5 51.2 7.6 50.1 7.5zM57.2 58.6V25.9c0-3.8 3.1-6.9 6.9-6.9h4.8c0.9-2.5 3.2-4.2 6-4.2 3.5 0 6.4 2.9 6.4 6.4s-2.9 6.4-6.4 6.4c-2.8 0-5.1-1.8-6-4.2h-4.8c-1.5 0-2.6 1.2-2.6 2.6v32.7c0 1.2-1 2.1-2.1 2.1C58.2 60.8 57.2 59.8 57.2 58.6zM72.8 21.2c0 1.2 0.9 2.1 2.1 2.1 1.2 0 2.1-0.9 2.1-2.1S76.1 19 74.9 19C73.7 19 72.8 20 72.8 21.2zM38.5 58.6V25.9c0-1.5-1.2-2.6-2.6-2.6h-4.8c-0.9 2.5-3.2 4.2-6 4.2-3.5 0-6.4-2.9-6.4-6.4s2.9-6.4 6.4-6.4c2.8 0 5.1 1.8 6 4.2h4.8c3.8 0 6.9 3.1 6.9 6.9v32.7c0 1.2-1 2.1-2.1 2.1S38.5 59.8 38.5 58.6zM27.2 21.2c0-1.2-0.9-2.1-2.1-2.1S23 20 23 21.2s0.9 2.1 2.1 2.1S27.2 22.3 27.2 21.2z" fill="#49beb7" data-fill-palette-color="accent"></path></svg></g></g></svg></g><defs></defs></svg><rect width="395.52" height="247.2" fill="none" stroke="none" visibility="hidden"></rect></g></svg></g></svg>